<svg width="172" height="50" viewBox="0 0 172 50" fill="none" xmlns="http://www.w3.org/2000/svg">
<g clip-path="url(#clip0_2071_1203)">
<path d="M89.6872 14.1799H79.1982V9.224H106.023V14.1799H95.5524V40.7584H89.6872V14.1799Z" fill="white"/>
<path d="M108.866 24.9912C108.866 15.5732 116.099 8.78308 125.796 8.78308C130.941 8.78308 135.367 10.6349 138.3 14.0564L134.504 17.6191C132.201 15.1499 129.358 13.9154 126.066 13.9154C119.517 13.9154 114.785 18.5009 114.785 24.9912C114.785 31.4815 119.535 36.067 126.066 36.067C129.358 36.067 132.201 34.8501 134.504 32.3281L138.3 35.9259C135.367 39.3475 130.941 41.1993 125.742 41.1993C116.081 41.1993 108.848 34.3915 108.848 24.9912" fill="white"/>
<path d="M142.366 24.9912C142.366 15.5732 149.599 8.78308 159.296 8.78308C164.441 8.78308 168.867 10.6349 171.8 14.0564L168.004 17.6191C165.701 15.1499 162.858 13.9154 159.566 13.9154C153.017 13.9154 148.285 18.5009 148.285 24.9912C148.285 31.4815 153.035 36.067 159.566 36.067C162.858 36.067 165.701 34.8501 168.004 32.3281L171.8 35.9259C168.867 39.3475 164.441 41.1993 159.242 41.1993C149.581 41.1993 142.348 34.3915 142.348 24.9912" fill="white"/>
<path d="M37.584 29.4533C22.1834 29.4533 9.69737 23.1746 9.69737 15.4321C9.69737 9.85893 16.1923 5.04412 25.5838 2.78662C10.9388 4.92066 0 13.4568 0 23.6685C0 34.4621 12.2162 43.3686 28.0846 44.8325L25.062 49.9824H29.8477L42.0459 29.2593C41.2003 29.3298 38.2317 29.4357 37.602 29.4357" fill="white"/>
<path d="M30.3155 20.5291C45.7162 20.5291 58.2022 26.8078 58.2022 34.5503C58.2022 40.1235 51.7073 44.9383 42.3158 47.1958C56.9608 45.0617 67.8996 36.5256 67.8996 26.3139C67.8996 15.5203 55.6834 6.61376 39.815 5.14991L42.8375 0H38.0518L25.8537 20.7231C26.6992 20.6526 29.6678 20.5467 30.2975 20.5467" fill="white"/>
</g>
<defs>
<clipPath id="clip0_2071_1203">
<rect width="172" height="50" fill="white"/>
</clipPath>
</defs>
</svg>
